<svg width="40" height="40" viewBox="0 0 40 40" fill="none" xmlns="http://www.w3.org/2000/svg">
<g id="Group 1">
<rect id="Background" width="40" height="40" rx="5" fill="#2C2C30"/>
<g id="Icon-Location">
<mask id="mask0_56_22" style="mask-type:alpha" maskUnits="userSpaceOnUse" x="5" y="5" width="30" height="30">
<rect id="Bounding box" x="5" y="5" width="30" height="30" fill="#D9D9D9"/>
</mask>
<g mask="url(#mask0_56_22)">
<path id="distance" d="M20 32.5C17.7917 32.5 15.9896 32.151 14.5938 31.4531C13.1979 30.7552 12.5 29.8542 12.5 28.75C12.5 28.25 12.651 27.7865 12.9531 27.3594C13.2552 26.9323 13.6771 26.5625 14.2188 26.25L16.1875 28.0938C16 28.1771 15.7969 28.2708 15.5781 28.375C15.3594 28.4792 15.1875 28.6042 15.0625 28.75C15.3333 29.0833 15.9583 29.375 16.9375 29.625C17.9167 29.875 18.9375 30 20 30C21.0625 30 22.0885 29.875 23.0781 29.625C24.0677 29.375 24.6979 29.0833 24.9688 28.75C24.8229 28.5833 24.6354 28.4479 24.4063 28.3438C24.1771 28.2396 23.9583 28.1458 23.75 28.0625L25.6875 26.1875C26.2708 26.5208 26.7188 26.901 27.0312 27.3281C27.3438 27.7552 27.5 28.2292 27.5 28.75C27.5 29.8542 26.8021 30.7552 25.4062 31.4531C24.0104 32.151 22.2083 32.5 20 32.5ZM20.0312 25.625C22.0938 24.1042 23.6458 22.5781 24.6875 21.0469C25.7292 19.5156 26.25 17.9792 26.25 16.4375C26.25 14.3125 25.5729 12.7083 24.2188 11.625C22.8646 10.5417 21.4583 10 20 10C18.5417 10 17.1354 10.5417 15.7812 11.625C14.4271 12.7083 13.75 14.3125 13.75 16.4375C13.75 17.8333 14.2604 19.2865 15.2812 20.7969C16.3021 22.3073 17.8854 23.9167 20.0312 25.625ZM20 28.75C17.0625 26.5833 14.8698 24.4792 13.4219 22.4375C11.974 20.3958 11.25 18.3958 11.25 16.4375C11.25 14.9583 11.5156 13.6615 12.0469 12.5469C12.5781 11.4323 13.2604 10.5 14.0938 9.75C14.9271 9 15.8646 8.4375 16.9062 8.0625C17.9479 7.6875 18.9792 7.5 20 7.5C21.0208 7.5 22.0521 7.6875 23.0938 8.0625C24.1354 8.4375 25.0729 9 25.9062 9.75C26.7396 10.5 27.4219 11.4323 27.9531 12.5469C28.4844 13.6615 28.75 14.9583 28.75 16.4375C28.75 18.3958 28.026 20.3958 26.5781 22.4375C25.1302 24.4792 22.9375 26.5833 20 28.75ZM20 18.75C20.6875 18.75 21.276 18.5052 21.7656 18.0156C22.2552 17.526 22.5 16.9375 22.5 16.25C22.5 15.5625 22.2552 14.974 21.7656 14.4844C21.276 13.9948 20.6875 13.75 20 13.75C19.3125 13.75 18.724 13.9948 18.2344 14.4844C17.7448 14.974 17.5 15.5625 17.5 16.25C17.5 16.9375 17.7448 17.526 18.2344 18.0156C18.724 18.5052 19.3125 18.75 20 18.75Z" fill="white"/>
</g>
</g>
</g>
</svg>
