<svg width="24" height="24" viewBox="0 0 24 24" fill="none" xmlns="http://www.w3.org/2000/svg">
<mask id="mask0_102_138" style="mask-type:alpha" maskUnits="userSpaceOnUse" x="0" y="0" width="24" height="24">
<rect width="24" height="24" fill="#D9D9D9"/>
</mask>
<g mask="url(#mask0_102_138)">
<path d="M16.8147 8.20704C17.0147 8.40704 17.2481 8.51121 17.5147 8.51954C17.7814 8.52788 18.0147 8.43204 18.2147 8.23204L19.6147 6.83204C19.8147 6.63204 19.9147 6.39454 19.9147 6.11954C19.9147 5.84454 19.8147 5.60704 19.6147 5.40704C19.4314 5.22371 19.1981 5.13204 18.9147 5.13204C18.6314 5.13204 18.3981 5.22371 18.2147 5.40704L16.8147 6.80704C16.6314 6.99038 16.5397 7.21954 16.5397 7.49454C16.5397 7.76954 16.6314 8.00704 16.8147 8.20704ZM3.36475 21.782C2.81475 21.782 2.34391 21.5862 1.95225 21.1945C1.56058 20.8029 1.36475 20.332 1.36475 19.782V5.78204C1.36475 5.23204 1.56058 4.76121 1.95225 4.36954C2.34391 3.97788 2.81475 3.78204 3.36475 3.78204H11.3647V11.782C11.3647 12.332 11.5606 12.8029 11.9522 13.1945C12.3439 13.5862 12.8147 13.782 13.3647 13.782H19.3647V19.782C19.3647 20.332 19.1689 20.8029 18.7772 21.1945C18.3856 21.5862 17.9147 21.782 17.3647 21.782H3.36475ZM18.3647 11.782C17.8647 11.782 17.3731 11.707 16.8897 11.557C16.4064 11.407 15.9564 11.1904 15.5397 10.907L15.1647 11.257C14.9647 11.4404 14.7272 11.532 14.4522 11.532C14.1772 11.532 13.9481 11.4404 13.7647 11.257C13.5814 11.0737 13.4897 10.8404 13.4897 10.557C13.4897 10.2737 13.5814 10.0404 13.7647 9.85704L14.1647 9.45704C13.8981 9.05704 13.6981 8.63204 13.5647 8.18204C13.4314 7.73204 13.3647 7.26538 13.3647 6.78204C13.3647 5.39871 13.8522 4.21954 14.8272 3.24454C15.8022 2.26954 16.9814 1.78204 18.3647 1.78204H23.3647V6.78204C23.3647 8.16538 22.8772 9.34454 21.9022 10.3195C20.9272 11.2945 19.7481 11.782 18.3647 11.782ZM5.36475 17.782H7.36475V10.782H5.36475V17.782ZM9.36475 17.782H11.3647V7.78204H9.36475V17.782ZM13.3647 17.782H15.3647V13.782H13.3647V17.782Z" fill="#FFFFFF"/>
</g>
</svg>
