<svg width="30" height="30" viewBox="0 0 30 30" fill="none" xmlns="http://www.w3.org/2000/svg">
<g id="Button-Settings">
<rect id="Background" width="30" height="30" rx="5" fill="#2C2C30"/>
<g id="Icon-Settings">
<mask id="mask0_49_206" style="mask-type:alpha" maskUnits="userSpaceOnUse" x="3" y="3" width="24" height="24">
<rect id="Bounding box" x="3" y="3" width="24" height="24" fill="#D9D9D9"/>
</mask>
<g mask="url(#mask0_49_206)">
<path id="tune" d="M14 24V18H16V20H24V22H16V24H14ZM6 22V20H12V22H6ZM10 18V16H6V14H10V12H12V18H10ZM14 16V14H24V16H14ZM18 12V6H20V8H24V10H20V12H18ZM6 10V8H16V10H6Z" fill="white"/>
</g>
</g>
</g>
</svg>
