<?xml version="1.0" encoding="UTF-8"?>
<svg id="Camada_1" data-name="Camada 1" xmlns="http://www.w3.org/2000/svg" xmlns:xlink="http://www.w3.org/1999/xlink" viewBox="0 0 242.59 34.46">
  <defs>
    <style>
      .cls-1 {
        fill: url(#Gradiente_sem_nome_38-2);
      }

      .cls-2 {
        fill: url(#Gradiente_sem_nome_39);
      }

      .cls-3 {
        fill: url(#Gradiente_sem_nome_38-3);
      }

      .cls-4 {
        fill: url(#Gradiente_sem_nome_38);
      }

      .cls-5 {
        fill: url(#Gradiente_sem_nome_35);
      }

      .cls-6 {
        fill: url(#Gradiente_sem_nome_29);
      }

      .cls-7 {
        fill: #1d1d1b;
      }
    </style>
    <linearGradient id="Gradiente_sem_nome_38" data-name="Gradiente sem nome 38" x1="41.25" y1="17.33" x2="60.29" y2="17.33" gradientUnits="userSpaceOnUse">
      <stop offset="0" stop-color="#dedf51"/>
      <stop offset="1" stop-color="#4aad33"/>
    </linearGradient>
    <linearGradient id="Gradiente_sem_nome_39" data-name="Gradiente sem nome 39" x1="127.99" y1="29.63" x2="127.99" y2="5.03" gradientUnits="userSpaceOnUse">
      <stop offset="0" stop-color="#dedf51"/>
      <stop offset="1" stop-color="#4aad33"/>
    </linearGradient>
    <linearGradient id="Gradiente_sem_nome_38-2" data-name="Gradiente sem nome 38" x1="31.71" y1="14.83" x2="17.25" y2=".38" xlink:href="#Gradiente_sem_nome_38"/>
    <linearGradient id="Gradiente_sem_nome_29" data-name="Gradiente sem nome 29" x1="1.51" y1="16.12" x2="13.41" y2="4.22" gradientUnits="userSpaceOnUse">
      <stop offset=".05" stop-color="#4aad33"/>
      <stop offset=".3" stop-color="#6db93a"/>
      <stop offset=".86" stop-color="#c7d74c"/>
      <stop offset="1" stop-color="#dedf51"/>
    </linearGradient>
    <linearGradient id="Gradiente_sem_nome_35" data-name="Gradiente sem nome 35" x1="17.25" y1="34.24" x2="2.8" y2="19.79" gradientUnits="userSpaceOnUse">
      <stop offset="0" stop-color="#4aad33"/>
      <stop offset=".27" stop-color="#6db93a"/>
      <stop offset=".86" stop-color="#c7d74c"/>
      <stop offset="1" stop-color="#dedf51"/>
    </linearGradient>
    <linearGradient id="Gradiente_sem_nome_38-3" data-name="Gradiente sem nome 38" x1="19.73" y1="31.81" x2="34.19" y2="17.35" xlink:href="#Gradiente_sem_nome_38"/>
  </defs>
  <g>
    <path class="cls-4" d="m48.36,14.9v4.45h9.96v-4.45h-9.96Zm0,10.16v4.57h11.92v-4.57h-11.92Zm11.48-20.04h-11.48v4.57h11.48v-4.57Zm-18.6,24.6h5.65V5.03h-5.65v24.6Z"/>
    <path class="cls-7" d="m76.43,30.06c-1.9,0-3.66-.31-5.29-.93s-3.04-1.5-4.23-2.65c-1.2-1.15-2.13-2.5-2.79-4.04s-1-3.25-1-5.1.33-3.55,1-5.1,1.6-2.89,2.81-4.04,2.62-2.03,4.25-2.65c1.63-.62,3.39-.93,5.29-.93,2.13,0,4.07.37,5.8,1.11,1.73.74,3.19,1.82,4.36,3.25l-3.69,3.38c-.82-.96-1.75-1.69-2.79-2.18-1.04-.49-2.17-.74-3.39-.74-1.15,0-2.2.19-3.16.58-.96.39-1.79.93-2.5,1.63-.7.7-1.25,1.53-1.63,2.5-.39.96-.58,2.03-.58,3.2s.19,2.24.58,3.2c.39.96.93,1.79,1.63,2.5.7.7,1.53,1.25,2.5,1.63.96.39,2.02.58,3.16.58,1.22,0,2.35-.25,3.39-.76,1.04-.5,1.97-1.24,2.79-2.2l3.69,3.38c-1.17,1.43-2.62,2.52-4.36,3.27-1.73.75-3.68,1.13-5.83,1.13Z"/>
    <path class="cls-7" d="m100.79,30.06c-1.95,0-3.74-.32-5.38-.95-1.64-.63-3.07-1.52-4.29-2.67-1.22-1.15-2.16-2.5-2.83-4.04-.67-1.55-1-3.23-1-5.06s.33-3.54,1-5.08,1.61-2.88,2.83-4.02c1.22-1.15,2.64-2.04,4.27-2.67,1.63-.63,3.42-.95,5.36-.95s3.73.31,5.36.93c1.63.62,3.05,1.51,4.27,2.65s2.16,2.5,2.83,4.04c.67,1.55,1,3.25,1,5.1s-.33,3.52-1,5.08c-.67,1.56-1.61,2.91-2.83,4.06-1.22,1.15-2.64,2.03-4.27,2.65-1.63.62-3.4.93-5.32.93Zm-.04-4.82c1.1,0,2.11-.19,3.04-.58.93-.39,1.74-.94,2.44-1.65.7-.71,1.25-1.55,1.63-2.49.39-.95.58-2.01.58-3.18s-.19-2.23-.58-3.18c-.39-.95-.93-1.78-1.63-2.5-.7-.71-1.52-1.26-2.44-1.65-.93-.39-1.94-.58-3.04-.58s-2.12.19-3.06.58c-.94.39-1.75.94-2.44,1.65-.69.72-1.23,1.55-1.62,2.5-.39.95-.58,2.01-.58,3.18s.19,2.23.58,3.18c.39.95.93,1.78,1.62,2.49.69.72,1.5,1.27,2.44,1.65.94.39,1.96.58,3.06.58Z"/>
    <path class="cls-7" d="m159.23,20.03h-2.05l1.79,4.34h1.76l-1.49-4.34Zm-8.55,0l-1.73,4.34h8.67l-1.73-4.34h-5.21Zm-4.16,0l-1.44,4.34h2.52l1.79-4.34h-2.87Zm9.61-15h-5.62l-10.95,24.6h5.86l2.2-5.27,1.79-4.34,3.34-8.03.56-1.35.56,1.35,3.34,8.03,1.79,4.34,2.2,5.27h5.98l-11.01-24.6Z"/>
    <path class="cls-7" d="m177.1,7.81v8.58l8.49,10.37v-8.55l-8.49-10.4Zm-7-2.78v24.6h5.54V6.03l-.82-1h-4.72Zm16.93,0v17.72h.03v5.8l.88,1.08h4.72V5.03h-5.62Z"/>
    <path class="cls-7" d="m209.89,30.06c-1.9,0-3.66-.31-5.29-.93s-3.04-1.5-4.24-2.65c-1.19-1.15-2.13-2.5-2.79-4.04-.67-1.55-1-3.25-1-5.1s.33-3.55,1-5.1c.67-1.55,1.6-2.89,2.81-4.04s2.63-2.03,4.25-2.65c1.63-.62,3.39-.93,5.29-.93,2.13,0,4.06.37,5.8,1.11,1.73.74,3.19,1.82,4.36,3.25l-3.69,3.38c-.82-.96-1.75-1.69-2.79-2.18-1.04-.49-2.17-.74-3.39-.74-1.15,0-2.2.19-3.16.58-.96.39-1.79.93-2.49,1.63-.7.7-1.25,1.53-1.64,2.5s-.58,2.03-.58,3.2.19,2.24.58,3.2.93,1.79,1.64,2.5c.7.7,1.53,1.25,2.49,1.63.96.39,2.02.58,3.16.58,1.22,0,2.35-.25,3.39-.76,1.04-.5,1.97-1.24,2.79-2.2l3.69,3.38c-1.17,1.43-2.63,2.52-4.36,3.27-1.73.75-3.68,1.13-5.84,1.13Z"/>
    <path class="cls-7" d="m230.64,14.9v4.45h9.96v-4.45h-9.96Zm0,10.16v4.57h11.95v-4.57h-11.95Zm11.48-20.04h-11.48v4.57h11.48v-4.57Zm-18.6,24.6h5.65V5.03h-5.65v24.6Z"/>
    <path class="cls-2" d="m135.8,5.03l-7.09,16.49,2.52,6.41.15.35h.03l10.05-23.26h-5.65Zm-6.12,21.79l-1.61-3.87-1.67,3.87-1.2,2.81h5.62l-1.14-2.81Zm-8.96-21.79h-6.18l10.08,23.26,2.84-6.82-6.74-16.43Z"/>
  </g>
  <g>
    <g>
      <g>
        <path class="cls-1" d="m34.19,8.84c0-4.68-3.79-8.47-8.47-8.47h-8.47v8.47c0,4.68,3.79,8.47,8.47,8.47s8.47-3.79,8.47-8.47Z"/>
        <path d="m25.72,17.69c-4.88,0-8.84-3.97-8.84-8.84V0h8.84c4.88,0,8.84,3.97,8.84,8.84s-3.97,8.84-8.84,8.84ZM17.63.75v8.09c0,4.46,3.63,8.09,8.09,8.09s8.09-3.63,8.09-8.09S30.18.75,25.72.75h-8.09Z"/>
      </g>
      <path d="m17.45.06c4.67,2.75,8.81,6.66,11.11,11.62-2.51-4.8-6.74-8.46-11.47-10.96,0,0,.37-.66.37-.66h0Z"/>
    </g>
    <g>
      <g>
        <path class="cls-6" d="m8.79.38C4.11.38.32,4.17.32,8.84v8.47h8.47c4.68,0,8.47-3.79,8.47-8.47S13.46.38,8.79.38Z"/>
        <path d="m8.79,17.69H-.06v-8.84C-.06,3.97,3.91,0,8.79,0s8.84,3.97,8.84,8.84-3.97,8.84-8.84,8.84Zm-8.09-.75h8.09c4.46,0,8.09-3.63,8.09-8.09S13.25.75,8.79.75.7,4.38.7,8.84v8.09Z"/>
      </g>
      <path d="m0,17.12c2.75-4.67,6.66-8.81,11.62-11.11C6.81,8.52,3.15,12.75.66,17.49c0,0-.66-.37-.66-.37h0Z"/>
    </g>
    <g>
      <g>
        <path class="cls-5" d="m.32,25.78c0,4.68,3.79,8.47,8.47,8.47h8.47v-8.47c0-4.68-3.79-8.47-8.47-8.47S.32,21.1.32,25.78Z"/>
        <path d="m17.63,34.62h-8.84C3.91,34.62-.06,30.65-.06,25.78s3.97-8.84,8.84-8.84,8.84,3.97,8.84,8.84v8.84Zm-8.84-16.93c-4.46,0-8.09,3.63-8.09,8.09s3.63,8.09,8.09,8.09h8.09v-8.09c0-4.46-3.63-8.09-8.09-8.09Z"/>
      </g>
      <path d="m17.06,34.56c-4.67-2.75-8.81-6.66-11.11-11.62,2.51,4.8,6.74,8.46,11.47,10.96,0,0-.37.66-.37.66h0Z"/>
    </g>
    <g>
      <g>
        <path class="cls-3" d="m25.72,34.29c4.68,0,8.47-3.79,8.47-8.47v-8.47h-8.47c-4.68,0-8.47,3.79-8.47,8.47s3.79,8.47,8.47,8.47Z"/>
        <path d="m25.72,34.66c-4.88,0-8.84-3.97-8.84-8.84s3.97-8.84,8.84-8.84h8.84v8.84c0,4.88-3.97,8.84-8.84,8.84Zm0-16.93c-4.46,0-8.09,3.63-8.09,8.09s3.63,8.09,8.09,8.09,8.09-3.63,8.09-8.09v-8.09h-8.09Z"/>
      </g>
      <path d="m34.51,17.55c-2.75,4.67-6.66,8.81-11.62,11.11,4.8-2.51,8.46-6.74,10.96-11.47,0,0,.66.37.66.37h0Z"/>
    </g>
  </g>
</svg>