<?xml version="1.0" encoding="UTF-8"?>
<svg id="Camada_1" data-name="Camada 1" xmlns="http://www.w3.org/2000/svg" xmlns:xlink="http://www.w3.org/1999/xlink" viewBox="0 0 420 60">
  <defs>
    <style>
      .cls-1 {
        fill: url(#Gradiente_sem_nome_38-2);
      }

      .cls-2 {
        fill: url(#Gradiente_sem_nome_39);
      }

      .cls-3 {
        fill: url(#Gradiente_sem_nome_38-3);
      }

      .cls-4 {
        fill: url(#Gradiente_sem_nome_38);
      }

      .cls-5 {
        fill: url(#Gradiente_sem_nome_35);
      }

      .cls-6 {
        fill: url(#Gradiente_sem_nome_29);
      }

      .cls-7 {
        fill: #1d1d1b;
      }
    </style>
    <linearGradient id="Gradiente_sem_nome_38" data-name="Gradiente sem nome 38" x1="71.49" y1="30" x2="104.44" y2="30" gradientUnits="userSpaceOnUse">
      <stop offset="0" stop-color="#dedf51"/>
      <stop offset="1" stop-color="#4aad33"/>
    </linearGradient>
    <linearGradient id="Gradiente_sem_nome_39" data-name="Gradiente sem nome 39" x1="221.64" y1="51.29" x2="221.64" y2="8.71" gradientUnits="userSpaceOnUse">
      <stop offset="0" stop-color="#dedf51"/>
      <stop offset="1" stop-color="#4aad33"/>
    </linearGradient>
    <linearGradient id="Gradiente_sem_nome_38-2" data-name="Gradiente sem nome 38" x1="54.98" y1="25.67" x2="29.96" y2=".65" xlink:href="#Gradiente_sem_nome_38"/>
    <linearGradient id="Gradiente_sem_nome_29" data-name="Gradiente sem nome 29" x1="2.71" y1="27.9" x2="23.31" y2="7.3" gradientUnits="userSpaceOnUse">
      <stop offset=".05" stop-color="#4aad33"/>
      <stop offset=".3" stop-color="#6db93a"/>
      <stop offset=".86" stop-color="#c7d74c"/>
      <stop offset="1" stop-color="#dedf51"/>
    </linearGradient>
    <linearGradient id="Gradiente_sem_nome_35" data-name="Gradiente sem nome 35" x1="29.96" y1="59.27" x2="4.94" y2="34.25" gradientUnits="userSpaceOnUse">
      <stop offset="0" stop-color="#4aad33"/>
      <stop offset=".27" stop-color="#6db93a"/>
      <stop offset=".86" stop-color="#c7d74c"/>
      <stop offset="1" stop-color="#dedf51"/>
    </linearGradient>
    <linearGradient id="Gradiente_sem_nome_38-3" data-name="Gradiente sem nome 38" x1="34.25" y1="55.06" x2="59.27" y2="30.04" xlink:href="#Gradiente_sem_nome_38"/>
  </defs>
  <g>
    <path class="cls-4" d="m83.81,25.79v7.71h17.24v-7.71h-17.24Zm0,17.59v7.91h20.63v-7.91h-20.63Zm19.87-34.68h-19.87v7.91h19.87v-7.91Zm-32.19,42.59h9.79V8.71h-9.79v42.59Z"/>
    <path class="cls-7" d="m132.39,52.03c-3.29,0-6.34-.54-9.16-1.61s-5.26-2.6-7.33-4.59c-2.07-1.99-3.68-4.32-4.84-7s-1.74-5.62-1.74-8.82.58-6.14,1.74-8.82,2.78-5.01,4.87-7,4.54-3.52,7.36-4.59c2.82-1.07,5.87-1.61,9.15-1.61,3.69,0,7.04.64,10.04,1.92,3,1.28,5.52,3.15,7.55,5.63l-6.39,5.84c-1.42-1.66-3.03-2.92-4.83-3.77-1.81-.85-3.76-1.28-5.87-1.28-1.99,0-3.81.33-5.48,1-1.66.67-3.1,1.61-4.32,2.83-1.22,1.22-2.16,2.66-2.83,4.32-.67,1.66-1,3.51-1,5.54s.33,3.87,1,5.54c.67,1.66,1.61,3.1,2.83,4.32,1.22,1.22,2.66,2.16,4.32,2.83,1.66.67,3.49,1.01,5.48,1.01,2.11,0,4.06-.44,5.87-1.31,1.8-.87,3.42-2.14,4.83-3.8l6.39,5.84c-2.03,2.47-4.54,4.36-7.55,5.65-3,1.3-6.37,1.95-10.1,1.95Z"/>
    <path class="cls-7" d="m174.55,52.03c-3.37,0-6.47-.55-9.31-1.64-2.84-1.09-5.32-2.63-7.42-4.62-2.11-1.99-3.74-4.32-4.9-7-1.16-2.68-1.74-5.6-1.74-8.76s.58-6.13,1.74-8.79,2.79-4.98,4.9-6.97c2.11-1.99,4.57-3.53,7.39-4.62,2.82-1.09,5.91-1.64,9.28-1.64s6.46.54,9.28,1.61c2.82,1.07,5.28,2.61,7.39,4.59s3.74,4.32,4.9,7c1.16,2.68,1.74,5.62,1.74,8.82s-.58,6.09-1.74,8.79c-1.16,2.7-2.79,5.04-4.9,7.03-2.11,1.99-4.57,3.52-7.39,4.59-2.82,1.07-5.89,1.61-9.22,1.61Zm-.06-8.34c1.91,0,3.66-.33,5.26-1.01,1.6-.67,3.01-1.62,4.23-2.86,1.22-1.24,2.16-2.68,2.83-4.32.67-1.64,1-3.48,1-5.51s-.33-3.86-1-5.51c-.67-1.64-1.61-3.08-2.83-4.32-1.22-1.24-2.63-2.19-4.23-2.86-1.6-.67-3.36-1-5.26-1s-3.67.33-5.29,1c-1.62.67-3.03,1.62-4.23,2.86-1.2,1.24-2.13,2.68-2.8,4.32-.67,1.64-1,3.48-1,5.51s.33,3.86,1,5.51c.67,1.64,1.6,3.08,2.8,4.32,1.2,1.24,2.6,2.19,4.23,2.86,1.62.67,3.39,1.01,5.29,1.01Z"/>
    <path class="cls-7" d="m275.71,34.66h-3.55l3.09,7.5h3.04l-2.59-7.5Zm-14.8,0l-2.99,7.5h15.01l-2.99-7.5h-9.02Zm-7.2,0l-2.48,7.5h4.36l3.09-7.5h-4.97Zm16.63-25.96h-9.73l-18.96,42.59h10.14l3.8-9.13,3.09-7.5,5.78-13.89.96-2.33.96,2.33,5.78,13.89,3.09,7.5,3.8,9.13h10.34l-19.06-42.59Z"/>
    <path class="cls-7" d="m306.64,13.52v14.85l14.7,17.95v-14.8l-14.7-18Zm-12.12-4.82v42.59h9.58V10.43l-1.42-1.72h-8.16Zm29.3,0v30.67h.05v10.04l1.52,1.88h8.16V8.71h-9.73Z"/>
    <path class="cls-7" d="m363.4,52.03c-3.28,0-6.34-.54-9.15-1.61s-5.26-2.6-7.33-4.59c-2.06-1.99-3.68-4.32-4.84-7-1.15-2.68-1.73-5.62-1.73-8.82s.58-6.14,1.73-8.82c1.16-2.68,2.78-5.01,4.87-7s4.55-3.52,7.36-4.59c2.82-1.07,5.87-1.61,9.16-1.61,3.69,0,7.04.64,10.04,1.92s5.52,3.15,7.55,5.63l-6.39,5.84c-1.42-1.66-3.04-2.92-4.84-3.77-1.81-.85-3.76-1.28-5.87-1.28-1.99,0-3.81.33-5.48,1-1.66.67-3.1,1.61-4.32,2.83-1.22,1.22-2.16,2.66-2.83,4.32s-1.01,3.51-1.01,5.54.34,3.87,1.01,5.54,1.61,3.1,2.83,4.32c1.21,1.22,2.65,2.16,4.32,2.83,1.66.67,3.49,1.01,5.48,1.01,2.11,0,4.06-.44,5.87-1.31,1.8-.87,3.42-2.14,4.84-3.8l6.39,5.84c-2.03,2.47-4.55,4.36-7.55,5.65-3,1.3-6.37,1.95-10.1,1.95Z"/>
    <path class="cls-7" d="m399.31,25.79v7.71h17.24v-7.71h-17.24Zm0,17.59v7.91h20.69v-7.91h-20.69Zm19.87-34.68h-19.87v7.91h19.87v-7.91Zm-32.19,42.59h9.79V8.71h-9.79v42.59Z"/>
    <path class="cls-2" d="m235.15,8.71l-12.27,28.54,4.36,11.1.25.61h.05l17.39-40.26h-9.79Zm-10.6,37.72l-2.79-6.69-2.89,6.69-2.08,4.87h9.73l-1.98-4.87Zm-15.51-37.72h-10.7l17.44,40.26,4.92-11.81-11.66-28.44Z"/>
  </g>
  <g>
    <g>
      <g>
        <path class="cls-1" d="m59.27,15.31c0-8.09-6.56-14.66-14.66-14.66h-14.66v14.66c0,8.09,6.56,14.66,14.66,14.66s14.66-6.56,14.66-14.66Z"/>
        <path d="m44.62,30.61c-8.44,0-15.31-6.87-15.31-15.31V0h15.31c8.44,0,15.31,6.87,15.31,15.31s-6.87,15.31-15.31,15.31ZM30.61,1.3v14c0,7.72,6.28,14,14,14s14-6.28,14-14S52.34,1.3,44.62,1.3h-14Z"/>
      </g>
      <path d="m30.29.1c8.09,4.75,15.24,11.53,19.22,20.11-4.34-8.31-11.66-14.65-19.86-18.97,0,0,.64-1.14.64-1.14h0Z"/>
    </g>
    <g>
      <g>
        <path class="cls-6" d="m15.31.65C7.21.65.65,7.21.65,15.31v14.66h14.66c8.09,0,14.66-6.56,14.66-14.66S23.4.65,15.31.65Z"/>
        <path d="m15.31,30.61H0v-15.31C0,6.87,6.87,0,15.31,0s15.31,6.87,15.31,15.31-6.87,15.31-15.31,15.31Zm-14-1.3h14c7.72,0,14-6.28,14-14S23.03,1.3,15.31,1.3,1.3,7.58,1.3,15.31v14Z"/>
      </g>
      <path d="m.1,29.63c4.75-8.09,11.53-15.24,20.11-19.22C11.89,14.75,5.56,22.07,1.23,30.27c0,0-1.14-.64-1.14-.64H.1Z"/>
    </g>
    <g>
      <g>
        <path class="cls-5" d="m.65,44.62c0,8.09,6.56,14.66,14.66,14.66h14.66v-14.66c0-8.09-6.56-14.66-14.66-14.66S.65,36.52.65,44.62Z"/>
        <path d="m30.61,59.92h-15.31c-8.44,0-15.31-6.87-15.31-15.31s6.87-15.31,15.31-15.31,15.31,6.87,15.31,15.31v15.31Zm-15.31-29.31c-7.72,0-14,6.28-14,14s6.28,14,14,14h14v-14c0-7.72-6.28-14-14-14Z"/>
      </g>
      <path d="m29.63,59.83c-8.09-4.75-15.24-11.53-19.22-20.11,4.34,8.31,11.66,14.65,19.86,18.97,0,0-.64,1.14-.64,1.14h0Z"/>
    </g>
    <g>
      <g>
        <path class="cls-3" d="m44.62,59.35c8.09,0,14.66-6.56,14.66-14.66v-14.66h-14.66c-8.09,0-14.66,6.56-14.66,14.66s6.56,14.66,14.66,14.66Z"/>
        <path d="m44.62,60c-8.44,0-15.31-6.87-15.31-15.31s6.87-15.31,15.31-15.31h15.31v15.31c0,8.44-6.87,15.31-15.31,15.31Zm0-29.31c-7.72,0-14,6.28-14,14s6.28,14,14,14,14-6.28,14-14v-14h-14Z"/>
      </g>
      <path d="m59.83,30.37c-4.75,8.09-11.53,15.24-20.11,19.22,8.31-4.34,14.65-11.66,18.97-19.86,0,0,1.14.64,1.14.64h0Z"/>
    </g>
  </g>
</svg>